Atma-ExtraBold.ufo
<glyph name="quotesingle" format="1">
  <advance width="221"/>
  <unicode hex="0027"/>
  <outline>
    <contour>
      <point x="190" y="723" type="curve"/>
      <point x="159" y="733"/>
      <point x="124" y="737"/>
      <point x="100" y="737" type="curve" smooth="yes"/>
      <point x="71" y="737"/>
      <point x="45" y="732"/>
      <point x="31" y="723" type="curve"/>
      <point x="34" y="641"/>
      <point x="37" y="568"/>
      <point x="43" y="474" type="curve"/>
      <point x="77" y="472"/>
      <point x="124" y="474"/>
      <point x="145" y="481" type="curve"/>
      <point x="167" y="573"/>
      <point x="180" y="656"/>
    </contour>
  </outline>
</glyph>
<glyph name="four" format="1">
  <advance width="653"/>
  <unicode hex="0034"/>
  <outline>
    <contour>
      <point x="600" y="96" type="curve"/>
      <point x="622" y="131"/>
      <point x="635" y="193"/>
      <point x="635" y="239" type="curve"/>
      <point x="523" y="249"/>
      <point x="368" y="265"/>
      <point x="208" y="296" type="curve"/>
      <point x="222" y="264" type="line"/>
      <point x="317" y="426"/>
      <point x="377" y="562"/>
      <point x="434" y="718" type="curve"/>
      <point x="393" y="733"/>
      <point x="320" y="761"/>
      <point x="242" y="761" type="curve"/>
      <point x="175" y="541"/>
      <point x="115" y="413"/>
      <point x="3" y="234" type="curve"/>
      <point x="10" y="200"/>
      <point x="14" y="173"/>
      <point x="24" y="148" type="curve"/>
      <point x="133" y="136"/>
      <point x="499" y="100"/>
    </contour>
    <contour>
      <point x="489" y="-29" type="curve"/>
      <point x="505" y="166"/>
      <point x="543" y="346"/>
      <point x="568" y="412" type="curve"/>
      <point x="539" y="419"/>
      <point x="505" y="424"/>
      <point x="478" y="424" type="curve" smooth="yes"/>
      <point x="415" y="424"/>
      <point x="378" y="413"/>
      <point x="349" y="398" type="curve"/>
      <point x="332" y="323"/>
      <point x="319" y="162"/>
      <point x="319" y="50" type="curve" smooth="yes"/>
      <point x="319" y="17"/>
      <point x="319" y="-15"/>
      <point x="322" y="-41" type="curve"/>
      <point x="339" y="-46"/>
      <point x="354" y="-48"/>
      <point x="382" y="-48" type="curve" smooth="yes"/>
      <point x="430" y="-48"/>
      <point x="465" y="-40"/>
    </contour>
  </outline>
</glyph>
<glyph name="five" format="1">
  <advance width="602"/>
  <unicode hex="0035"/>
  <outline>
    <contour>
      <point x="263" y="-37" type="curve" smooth="yes"/>
      <point x="428" y="-37"/>
      <point x="528" y="83"/>
      <point x="528" y="221" type="curve" smooth="yes"/>
      <point x="528" y="340"/>
      <point x="444" y="425"/>
      <point x="320" y="425" type="curve" smooth="yes"/>
      <point x="302" y="425"/>
      <point x="273" y="423"/>
      <point x="253" y="419" type="curve"/>
      <point x="253" y="442"/>
      <point x="254" y="472"/>
      <point x="258" y="532" type="curve"/>
      <point x="226" y="507" type="line"/>
      <point x="352" y="487"/>
      <point x="470" y="478"/>
      <point x="557" y="477" type="curve"/>
      <point x="576" y="523"/>
      <point x="586" y="582"/>
      <point x="586" y="644" type="curve"/>
      <point x="440" y="644"/>
      <point x="278" y="653"/>
      <point x="94" y="692" type="curve"/>
      <point x="78" y="588"/>
      <point x="69" y="495"/>
      <point x="69" y="411" type="curve" smooth="yes"/>
      <point x="69" y="387"/>
      <point x="69" y="364"/>
      <point x="71" y="341" type="curve"/>
      <point x="83" y="323"/>
      <point x="121" y="289"/>
      <point x="139" y="277" type="curve"/>
      <point x="164" y="285"/>
      <point x="186" y="289"/>
      <point x="206" y="289" type="curve" smooth="yes"/>
      <point x="286" y="289"/>
      <point x="322" y="225"/>
      <point x="322" y="163" type="curve" smooth="yes"/>
      <point x="322" y="99"/>
      <point x="299" y="72"/>
      <point x="261" y="72" type="curve" smooth="yes"/>
      <point x="227" y="72"/>
      <point x="200" y="104"/>
      <point x="200" y="180" type="curve"/>
      <point x="150" y="192"/>
      <point x="82" y="204"/>
      <point x="6" y="204" type="curve"/>
      <point x="15" y="31"/>
      <point x="127" y="-37"/>
    </contour>
  </outline>
</glyph>
<glyph name="seven" format="1">
  <advance width="539"/>
  <unicode hex="0037"/>
  <outline>
    <contour>
      <point x="185" y="-59" type="curve"/>
      <point x="264" y="103"/>
      <point x="382" y="315"/>
      <point x="501" y="437" type="curve"/>
      <point x="523" y="472"/>
      <point x="536" y="534"/>
      <point x="536" y="580" type="curve"/>
      <point x="374" y="595"/>
      <point x="210" y="626"/>
      <point x="46" y="664" type="curve"/>
      <point x="17" y="610"/>
      <point x="6" y="551"/>
      <point x="6" y="489" type="curve"/>
      <point x="115" y="477"/>
      <point x="222" y="470"/>
      <point x="347" y="470" type="curve"/>
      <point x="336" y="493" type="line"/>
      <point x="212" y="343"/>
      <point x="91" y="182"/>
      <point x="-10" y="-24" type="curve"/>
      <point x="35" y="-46"/>
      <point x="133" y="-64"/>
    </contour>
  </outline>
</glyph>
<glyph name="C" format="1">
  <advance width="618"/>
  <unicode hex="0043"/>
  <outline>
    <contour>
      <point x="589" y="207" type="curve"/>
      <point x="563" y="227"/>
      <point x="494" y="241"/>
      <point x="437" y="235" type="curve"/>
      <point x="448" y="146"/>
      <point x="418" y="91"/>
      <point x="353" y="91" type="curve" smooth="yes"/>
      <point x="288" y="91"/>
      <point x="255" y="173"/>
      <point x="255" y="310" type="curve" smooth="yes"/>
      <point x="255" y="448"/>
      <point x="295" y="573"/>
      <point x="353" y="573" type="curve" smooth="yes"/>
      <point x="387" y="573"/>
      <point x="416" y="535"/>
      <point x="416" y="438" type="curve"/>
      <point x="510" y="438"/>
      <point x="546" y="450"/>
      <point x="603" y="475" type="curve"/>
      <point x="591" y="614"/>
      <point x="510" y="693"/>
      <point x="387" y="693" type="curve" smooth="yes"/>
      <point x="174" y="693"/>
      <point x="35" y="490"/>
      <point x="35" y="261" type="curve" smooth="yes"/>
      <point x="35" y="51"/>
      <point x="153" y="-35"/>
      <point x="299" y="-35" type="curve" smooth="yes"/>
      <point x="483" y="-35"/>
      <point x="579" y="63"/>
    </contour>
  </outline>
</glyph>
<glyph name="E" format="1">
  <advance width="609"/>
  <unicode hex="0045"/>
  <outline>
    <contour>
      <point x="579" y="-10" type="curve"/>
      <point x="579" y="38"/>
      <point x="571" y="115"/>
      <point x="560" y="145" type="curve"/>
      <point x="494.626270715" y="131.540702794"/>
      <point x="335.428571429" y="113.0"/>
      <point x="298" y="113" type="curve"/>
      <point x="291" y="190"/>
      <point x="288" y="278"/>
      <point x="288" y="362" type="curve" smooth="yes"/>
      <point x="288" y="489"/>
      <point x="295" y="608"/>
      <point x="306" y="674" type="curve"/>
      <point x="205" y="674"/>
      <point x="140" y="684"/>
      <point x="64" y="681" type="curve"/>
      <point x="67" y="467"/>
      <point x="104" y="133"/>
      <point x="132" y="-43" type="curve"/>
      <point x="283.277292576" y="-43.0"/>
      <point x="544" y="-21"/>
    </contour>
    <contour>
      <point x="511" y="296" type="curve"/>
      <point x="511" y="359"/>
      <point x="507" y="406"/>
      <point x="495" y="455" type="curve"/>
      <point x="404.901886792" y="455.0"/>
      <point x="322.823801093" y="438.953722713"/>
      <point x="241" y="412" type="curve"/>
      <point x="250" y="278" type="line"/>
      <point x="335.477473846" y="290.485473708"/>
      <point x="426" y="296"/>
    </contour>
    <contour>
      <point x="535" y="570" type="curve"/>
      <point x="544" y="613"/>
      <point x="554" y="673"/>
      <point x="554" y="735" type="curve"/>
      <point x="379.908183633" y="735.0"/>
      <point x="226.487288788" y="712.322850851"/>
      <point x="64" y="681" type="curve"/>
      <point x="64" y="636"/>
      <point x="75" y="588"/>
      <point x="93" y="541" type="curve"/>
      <point x="238.453227892" y="561.500119367"/>
      <point x="389" y="570"/>
    </contour>
  </outline>
</glyph>
<glyph name="G" format="1">
  <advance width="642"/>
  <unicode hex="0047"/>
  <outline>
    <contour>
      <point x="534" y="217" type="curve"/>
      <point x="434" y="266" type="line"/>
      <point x="421" y="185"/>
      <point x="380" y="135"/>
      <point x="329" y="135" type="curve" smooth="yes"/>
      <point x="272" y="135"/>
      <point x="245" y="188"/>
      <point x="245" y="323" type="curve" smooth="yes"/>
      <point x="245" y="497"/>
      <point x="280" y="604"/>
      <point x="329" y="604" type="curve" smooth="yes"/>
      <point x="360" y="604"/>
      <point x="376" y="567"/>
      <point x="391" y="478" type="curve"/>
      <point x="466" y="478"/>
      <point x="531" y="486"/>
      <point x="593" y="506" type="curve"/>
      <point x="582" y="637"/>
      <point x="504" y="724"/>
      <point x="366" y="724" type="curve" smooth="yes"/>
      <point x="166" y="724"/>
      <point x="35" y="506"/>
      <point x="35" y="261" type="curve" smooth="yes"/>
      <point x="35" y="84"/>
      <point x="125" y="-21"/>
      <point x="259" y="-21" type="curve" smooth="yes"/>
      <point x="379" y="-21"/>
      <point x="469" y="50"/>
    </contour>
    <contour>
      <point x="642" y="-14" type="curve"/>
      <point x="612" y="103"/>
      <point x="598" y="225"/>
      <point x="600" y="352" type="curve"/>
      <point x="520" y="352"/>
      <point x="458" y="346"/>
      <point x="402" y="330" type="curve"/>
      <point x="410" y="203"/>
      <point x="440" y="81"/>
      <point x="494" y="-34" type="curve"/>
      <point x="550" y="-31"/>
      <point x="599" y="-25"/>
    </contour>
  </outline>
</glyph>
<glyph name="I" format="1">
  <advance width="332"/>
  <unicode hex="0049"/>
  <outline>
    <contour>
      <point x="251" y="-12" type="curve"/>
      <point x="265" y="136"/>
      <point x="273" y="355"/>
      <point x="273" y="526" type="curve" smooth="yes"/>
      <point x="273" y="583"/>
      <point x="272" y="635"/>
      <point x="270" y="677" type="curve"/>
      <point x="235" y="686"/>
      <point x="210" y="689"/>
      <point x="174" y="689" type="curve" smooth="yes"/>
      <point x="119" y="689"/>
      <point x="76" y="673"/>
      <point x="49" y="655" type="curve"/>
      <point x="78" y="436"/>
      <point x="85" y="183"/>
      <point x="85" y="-32" type="curve"/>
      <point x="144" y="-32"/>
      <point x="217" y="-22"/>
    </contour>
  </outline>
</glyph>
<glyph name="R" format="1">
  <advance width="638"/>
  <unicode hex="0052"/>
  <outline>
    <contour>
      <point x="260" y="-7" type="curve"/>
      <point x="273" y="128"/>
      <point x="278" y="263"/>
      <point x="278" y="394" type="curve" smooth="yes"/>
      <point x="278" y="491"/>
      <point x="275" y="586"/>
      <point x="271" y="675" type="curve"/>
      <point x="213.642857143" y="690.642857143"/>
      <point x="130.35483871" y="695.774193548"/>
      <point x="55" y="684" type="curve"/>
      <point x="76" y="495"/>
      <point x="90" y="309"/>
      <point x="90" y="119" type="curve" smooth="yes"/>
      <point x="90" y="82"/>
      <point x="89" y="44"/>
      <point x="88" y="6" type="curve"/>
      <point x="139" y="-3"/>
      <point x="207" y="-7"/>
    </contour>
    <contour>
      <point x="243" y="260" type="line"/>
      <point x="445" y="312"/>
      <point x="576" y="417"/>
      <point x="576" y="557" type="curve" smooth="yes"/>
      <point x="576" y="676"/>
      <point x="497" y="770"/>
      <point x="303" y="770" type="curve" smooth="yes"/>
      <point x="227" y="770"/>
      <point x="126" y="744"/>
      <point x="55" y="684" type="curve"/>
      <point x="67" y="637"/>
      <point x="84" y="601"/>
      <point x="102" y="551" type="curve"/>
      <point x="160" y="607"/>
      <point x="213" y="657"/>
      <point x="276" y="657" type="curve" smooth="yes"/>
      <point x="344" y="657"/>
      <point x="371" y="604"/>
      <point x="371" y="539" type="curve" smooth="yes"/>
      <point x="371" y="436"/>
      <point x="317" y="390"/>
      <point x="219" y="376" type="curve"/>
    </contour>
    <contour>
      <point x="643" y="44" type="curve"/>
      <point x="582" y="171"/>
      <point x="509" y="292"/>
      <point x="405" y="395" type="curve"/>
      <point x="271" y="315" type="line"/>
      <point x="355" y="202"/>
      <point x="402" y="89"/>
      <point x="463" y="-55" type="curve"/>
      <point x="541" y="-32"/>
      <point x="601" y="1"/>
    </contour>
  </outline>
</glyph>
<glyph name="Y" format="1">
  <advance width="564"/>
  <unicode hex="0059"/>
  <outline>
    <contour>
      <point x="316" y="329" type="line"/>
      <point x="246" y="462"/>
      <point x="215" y="575"/>
      <point x="194" y="737" type="curve"/>
      <point x="114" y="733"/>
      <point x="51" y="713"/>
      <point x="-5" y="673" type="curve"/>
      <point x="35" y="497"/>
      <point x="103" y="322"/>
      <point x="214" y="188" type="curve"/>
    </contour>
    <contour>
      <point x="246" y="-103" type="curve"/>
      <point x="398" y="137"/>
      <point x="487" y="384"/>
      <point x="559" y="661" type="curve"/>
      <point x="504" y="698"/>
      <point x="442" y="719"/>
      <point x="363" y="729" type="curve"/>
      <point x="313" y="429"/>
      <point x="239" y="211"/>
      <point x="92" y="-33" type="curve"/>
      <point x="128" y="-62"/>
      <point x="198" y="-91"/>
    </contour>
  </outline>
</glyph>
<glyph name="l" format="1">
  <advance width="316"/>
  <unicode hex="006C"/>
  <outline>
    <contour>
      <point x="50" y="471"/>
      <point x="67" y="144"/>
      <point x="85" y="-62" type="curve"/>
      <point x="142" y="-62"/>
      <point x="223" y="-52"/>
      <point x="256" y="-42" type="curve"/>
      <point x="256" y="146"/>
      <point x="260" y="557"/>
      <point x="276" y="730" type="curve"/>
      <point x="243" y="739"/>
      <point x="213" y="742"/>
      <point x="179" y="742" type="curve" smooth="yes"/>
      <point x="124" y="742"/>
      <point x="77" y="726"/>
      <point x="50" y="708" type="curve"/>
    </contour>
  </outline>
</glyph>
<glyph name="dieresis" format="1">
  <advance width="260"/>
  <unicode hex="00A8"/>
  <outline>
    <component base="dotaccent" xOffset="-130"/>
    <component base="dotaccent" xOffset="129"/>
    <contour>
      <point x="129" y="560" type="move" name="_top"/>
    </contour>
  </outline>
</glyph>
<glyph name="macron" format="1">
  <advance width="259.893390928"/>
  <unicode hex="00AF"/>
  <outline>
    <contour>
      <point x="4" y="698"/>
      <point x="4" y="648"/>
      <point x="7" y="623" type="curve"/>
      <point x="34" y="604"/>
      <point x="137" y="598"/>
      <point x="253" y="618" type="curve"/>
      <point x="256" y="650"/>
      <point x="255" y="684"/>
      <point x="253" y="712" type="curve"/>
      <point x="159" y="704"/>
      <point x="95" y="708"/>
      <point x="9" y="720" type="curve"/>
    </contour>
    <contour>
      <point x="130" y="560" type="move" name="_top"/>
    </contour>
  </outline>
</glyph>
<glyph name="ae" format="1">
  <advance width="828"/>
  <unicode hex="00E6"/>
  <outline>
    <contour>
      <point x="349" y="179" type="line"/>
      <point x="258" y="179"/>
      <point x="223" y="154"/>
      <point x="223" y="107" type="curve" smooth="yes"/>
      <point x="223" y="76"/>
      <point x="239" y="59"/>
      <point x="270" y="59" type="curve" smooth="yes"/>
      <point x="301" y="59"/>
      <point x="363" y="87"/>
      <point x="405" y="133" type="curve"/>
      <point x="396" y="45" type="line"/>
      <point x="325" y="-20"/>
      <point x="263" y="-32"/>
      <point x="207" y="-32" type="curve" smooth="yes"/>
      <point x="97" y="-32"/>
      <point x="24" y="27"/>
      <point x="24" y="121" type="curve" smooth="yes"/>
      <point x="24" y="210"/>
      <point x="91" y="263"/>
      <point x="255" y="263" type="curve" smooth="yes"/>
      <point x="314" y="263"/>
      <point x="331" y="262"/>
      <point x="349" y="260" type="curve"/>
    </contour>
    <contour>
      <point x="447" y="234" type="curve"/>
      <point x="456" y="338" type="line"/>
      <point x="498" y="315"/>
      <point x="542" y="305"/>
      <point x="568" y="305" type="curve" smooth="yes"/>
      <point x="578" y="305"/>
      <point x="596" y="306"/>
      <point x="601" y="307" type="curve"/>
      <point x="608" y="333"/>
      <point x="614" y="363"/>
      <point x="614" y="390" type="curve" smooth="yes"/>
      <point x="614" y="413"/>
      <point x="609" y="431"/>
      <point x="592" y="431" type="curve" smooth="yes"/>
      <point x="546" y="431"/>
      <point x="511" y="293"/>
      <point x="511" y="179" type="curve" smooth="yes"/>
      <point x="511" y="106"/>
      <point x="529" y="55"/>
      <point x="571" y="55" type="curve" smooth="yes"/>
      <point x="603" y="55"/>
      <point x="635" y="121"/>
      <point x="646" y="157" type="curve"/>
      <point x="696" y="148"/>
      <point x="754" y="118"/>
      <point x="788" y="83" type="curve"/>
      <point x="777" y="48"/>
      <point x="703" y="-56"/>
      <point x="534" y="-56" type="curve" smooth="yes"/>
      <point x="406" y="-56"/>
      <point x="320" y="52"/>
      <point x="320" y="176" type="curve" smooth="yes"/>
      <point x="320" y="273"/>
      <point x="343" y="347"/>
      <point x="397" y="413" type="curve" smooth="yes"/>
      <point x="451" y="479"/>
      <point x="529" y="531"/>
      <point x="616" y="531" type="curve" smooth="yes"/>
      <point x="717" y="531"/>
      <point x="790" y="466"/>
      <point x="790" y="375" type="curve" smooth="yes"/>
      <point x="790" y="334"/>
      <point x="781" y="277"/>
      <point x="767" y="238" type="curve"/>
      <point x="720" y="215"/>
      <point x="655" y="208"/>
      <point x="582" y="208" type="curve" smooth="yes"/>
      <point x="539" y="208"/>
      <point x="491" y="216"/>
    </contour>
    <contour>
      <point x="327" y="244" type="line"/>
      <point x="327" y="351"/>
      <point x="322" y="424"/>
      <point x="279" y="424" type="curve" smooth="yes"/>
      <point x="250" y="424"/>
      <point x="221" y="382"/>
      <point x="219" y="309" type="curve"/>
      <point x="131" y="309"/>
      <point x="75" y="344"/>
      <point x="54" y="402" type="curve"/>
      <point x="77" y="467"/>
      <point x="175" y="528"/>
      <point x="295" y="528" type="curve" smooth="yes"/>
      <point x="448" y="528"/>
      <point x="486" y="399"/>
      <point x="486" y="298" type="curve"/>
    </contour>
  </outline>
</glyph>
<glyph name="oslash" format="1">
  <advance width="559"/>
  <unicode hex="00F8"/>
  <outline>
    <contour>
      <point x="323" y="553" type="curve" smooth="yes"/>
      <point x="146" y="553"/>
      <point x="30" y="416"/>
      <point x="30" y="233" type="curve" smooth="yes"/>
      <point x="30" y="110"/>
      <point x="85" y="-10"/>
      <point x="234" y="-10" type="curve" smooth="yes"/>
      <point x="461" y="-10"/>
      <point x="529" y="215"/>
      <point x="529" y="342" type="curve" smooth="yes"/>
      <point x="529" y="479"/>
      <point x="452" y="553"/>
    </contour>
    <contour>
      <point x="280" y="438" type="curve" smooth="yes"/>
      <point x="313.0" y="438.0"/>
      <point x="330.0" y="395.595890411"/>
      <point x="330" y="287" type="curve" smooth="yes"/>
      <point x="330.0" y="212.966101695"/>
      <point x="319.0" y="105.0"/>
      <point x="277" y="105" type="curve" smooth="yes"/>
      <point x="240.0" y="105.0"/>
      <point x="225.0" y="192.814569536"/>
      <point x="225" y="261" type="curve" smooth="yes"/>
      <point x="225.0" y="366.994186047"/>
      <point x="248.0" y="438.0"/>
    </contour>
    <contour>
      <point x="515" y="531" type="line"/>
      <point x="481" y="565"/>
      <point x="459" y="579"/>
      <point x="414" y="599" type="curve"/>
      <point x="43" y="-11" type="line"/>
      <point x="72" y="-36"/>
      <point x="105" y="-58"/>
      <point x="136" y="-67" type="curve"/>
    </contour>
  </outline>
</glyph>
<glyph name="thorn" format="1">
  <advance width="569"/>
  <unicode hex="00FE"/>
  <outline>
    <contour>
      <point x="204" y="156" type="curve"/>
      <point x="79" y="64" type="line"/>
      <point x="120" y="42"/>
      <point x="176" y="10"/>
      <point x="274" y="10" type="curve" smooth="yes"/>
      <point x="424" y="10"/>
      <point x="549" y="148"/>
      <point x="549" y="379" type="curve" smooth="yes"/>
      <point x="549" y="498"/>
      <point x="495" y="573"/>
      <point x="401" y="573" type="curve" smooth="yes"/>
      <point x="294" y="573"/>
      <point x="230" y="471"/>
      <point x="195" y="357" type="curve"/>
      <point x="240" y="323" type="line"/>
      <point x="256" y="404"/>
      <point x="284" y="431"/>
      <point x="312" y="431" type="curve" smooth="yes"/>
      <point x="339" y="431"/>
      <point x="350" y="406"/>
      <point x="350" y="358" type="curve" smooth="yes"/>
      <point x="350" y="211"/>
      <point x="313" y="118"/>
      <point x="272" y="118" type="curve" smooth="yes"/>
      <point x="245" y="118"/>
      <point x="222" y="137"/>
    </contour>
    <contour>
      <point x="48" y="386"/>
      <point x="65" y="46"/>
      <point x="91" y="-236" type="curve"/>
      <point x="148" y="-236"/>
      <point x="223" y="-223"/>
      <point x="256" y="-211" type="curve"/>
      <point x="243" y="46"/>
      <point x="249" y="506"/>
      <point x="276" y="733" type="curve"/>
      <point x="243" y="745"/>
      <point x="213" y="748"/>
      <point x="179" y="748" type="curve" smooth="yes"/>
      <point x="124" y="748"/>
      <point x="79" y="728"/>
      <point x="52" y="707" type="curve"/>
    </contour>
  </outline>
</glyph>
<glyph name="uni0137" format="1">
  <advance width="580"/>
  <unicode hex="0137"/>
  <outline>
    <contour>
      <point x="368" y="-96" type="curve"/>
      <point x="326" y="-87"/>
      <point x="272" y="-84"/>
      <point x="219" y="-87" type="curve"/>
      <point x="224" y="-159"/>
      <point x="216" y="-225"/>
      <point x="200" y="-298" type="curve"/>
      <point x="232" y="-304"/>
      <point x="273" y="-308"/>
      <point x="314" y="-309" type="curve"/>
      <point x="347" y="-252"/>
      <point x="366" y="-164"/>
    </contour>
    <component base="k"/>
  </outline>
</glyph>
<glyph name="OE" format="1">
  <advance width="944"/>
  <unicode hex="0152"/>
  <outline>
    <contour>
      <point x="368" y="746" type="curve" smooth="yes"/>
      <point x="161" y="746"/>
      <point x="30" y="571"/>
      <point x="30" y="336" type="curve" smooth="yes"/>
      <point x="30" y="162"/>
      <point x="98" y="-7"/>
      <point x="279" y="-7" type="curve" smooth="yes"/>
      <point x="542" y="-7"/>
      <point x="619" y="282"/>
      <point x="619" y="445" type="curve" smooth="yes"/>
      <point x="619" y="640"/>
      <point x="525" y="746"/>
    </contour>
    <contour>
      <point x="325" y="616" type="curve" smooth="yes"/>
      <point x="387" y="616"/>
      <point x="410" y="553"/>
      <point x="410" y="390" type="curve" smooth="yes"/>
      <point x="410" y="277"/>
      <point x="403" y="123"/>
      <point x="322" y="123" type="curve" smooth="yes"/>
      <point x="252" y="123"/>
      <point x="235" y="255"/>
      <point x="235" y="364" type="curve" smooth="yes"/>
      <point x="235" y="515"/>
      <point x="264" y="616"/>
    </contour>
    <contour>
      <point x="467" y="-23" type="curve"/>
      <point x="618" y="-23"/>
      <point x="879" y="-1"/>
      <point x="914" y="10" type="curve"/>
      <point x="914" y="58"/>
      <point x="906" y="135"/>
      <point x="895" y="165" type="curve"/>
      <point x="830" y="152"/>
      <point x="670" y="133"/>
      <point x="633" y="133" type="curve"/>
      <point x="626" y="210"/>
      <point x="623" y="278"/>
      <point x="623" y="362" type="curve" smooth="yes"/>
      <point x="623" y="489"/>
      <point x="630" y="604"/>
      <point x="641" y="670" type="curve"/>
      <point x="540" y="670"/>
      <point x="475" y="680"/>
      <point x="399" y="677" type="curve"/>
      <point x="402" y="463"/>
      <point x="439" y="153"/>
    </contour>
    <contour>
      <point x="830" y="455" type="curve"/>
      <point x="740" y="455"/>
      <point x="658" y="439"/>
      <point x="576" y="412" type="curve"/>
      <point x="585" y="278" type="line"/>
      <point x="670" y="290"/>
      <point x="761" y="296"/>
      <point x="846" y="296" type="curve"/>
      <point x="846" y="359"/>
      <point x="842" y="406"/>
    </contour>
    <contour>
      <point x="889" y="731" type="curve"/>
      <point x="715" y="731"/>
      <point x="561" y="708"/>
      <point x="399" y="677" type="curve"/>
      <point x="399" y="632"/>
      <point x="410" y="584"/>
      <point x="428" y="537" type="curve"/>
      <point x="573" y="558"/>
      <point x="724" y="566"/>
      <point x="870" y="566" type="curve"/>
      <point x="879" y="609"/>
      <point x="889" y="669"/>
    </contour>
  </outline>
</glyph>
<glyph name="ogonek" format="1">
  <advance width="261"/>
  <unicode hex="02DB"/>
  <outline>
    <contour>
      <point x="193" y="-2" type="curve"/>
      <point x="141" y="27" type="line"/>
      <point x="52" y="-13"/>
      <point x="1" y="-81"/>
      <point x="1" y="-138" type="curve" smooth="yes"/>
      <point x="1" y="-200"/>
      <point x="47" y="-232"/>
      <point x="108" y="-232" type="curve" smooth="yes"/>
      <point x="163" y="-232"/>
      <point x="203" y="-208"/>
      <point x="231" y="-171" type="curve"/>
      <point x="222" y="-151"/>
      <point x="209" y="-127"/>
      <point x="193" y="-114" type="curve"/>
      <point x="175" y="-141"/>
      <point x="158" y="-153"/>
      <point x="141" y="-153" type="curve" smooth="yes"/>
      <point x="121" y="-153"/>
      <point x="110" y="-140"/>
      <point x="110" y="-120" type="curve" smooth="yes"/>
      <point x="110" y="-83"/>
      <point x="142" y="-37"/>
    </contour>
    <contour>
      <point x="144.0" y="0.0" type="move" name="_bottom"/>
    </contour>
  </outline>
</glyph>
<glyph name="endash" format="1">
  <advance width="500"/>
  <unicode hex="2013"/>
  <outline>
    <contour>
      <point x="16" y="306"/>
      <point x="12" y="267"/>
      <point x="9" y="224" type="curve"/>
      <point x="92" y="196"/>
      <point x="326" y="189"/>
      <point x="472" y="218" type="curve"/>
      <point x="483" y="256"/>
      <point x="489" y="301"/>
      <point x="489" y="343" type="curve"/>
      <point x="445" y="338"/>
      <point x="376" y="334"/>
      <point x="292" y="334" type="curve" smooth="yes"/>
      <point x="259" y="334"/>
      <point x="92" y="340"/>
      <point x="22" y="350" type="curve"/>
    </contour>
  </outline>
</glyph>
<glyph name="bullet" format="1">
  <advance width="347"/>
  <unicode hex="2022"/>
  <outline>
    <contour>
      <point x="314" y="234"/>
      <point x="320" y="310"/>
      <point x="323" y="397" type="curve"/>
      <point x="203" y="415"/>
      <point x="105" y="403"/>
      <point x="36" y="387" type="curve"/>
      <point x="36" y="300"/>
      <point x="39" y="244"/>
      <point x="47" y="150" type="curve"/>
      <point x="128" y="139"/>
      <point x="201" y="138"/>
      <point x="300" y="148" type="curve"/>
    </contour>
  </outline>
</glyph>
<glyph name="bn_gha" format="1">
  <advance width="866.189349112"/>
  <outline>
    <contour>
      <point x="689" y="97"/>
      <point x="725" y="425"/>
      <point x="766" y="670" type="curve"/>
      <point x="690.510481169" y="689.311272259"/>
      <point x="624" y="683"/>
      <point x="546" y="683" type="curve"/>
      <point x="525" y="462"/>
      <point x="507.0" y="147.34082397"/>
      <point x="507" y="-116" type="curve"/>
      <point x="569" y="-140"/>
      <point x="623.626506024" y="-147.0"/>
      <point x="683" y="-147" type="curve"/>
    </contour>
    <contour>
      <point x="292" y="375" type="line"/>
      <point x="220" y="315"/>
      <point x="179" y="290"/>
      <point x="137" y="267" type="curve"/>
      <point x="135" y="207"/>
      <point x="156.15165094" y="144.171422964"/>
      <point x="177" y="99" type="curve"/>
      <point x="312" y="81"/>
      <point x="460.579710662" y="19.3526558333"/>
      <point x="515" y="-104" type="curve"/>
      <point x="546" y="-45" type="line"/>
      <point x="502" y="89"/>
      <point x="421" y="171"/>
      <point x="329" y="228" type="curve"/>
      <point x="293" y="173" type="line"/>
      <point x="368.42233057" y="209.813280397"/>
      <point x="454" y="292"/>
      <point x="497" y="368" type="curve"/>
      <point x="467" y="415"/>
      <point x="436" y="439"/>
      <point x="387" y="463" type="curve"/>
      <point x="357" y="427"/>
      <point x="333" y="408"/>
      <point x="308" y="408" type="curve" smooth="yes"/>
      <point x="265" y="408"/>
      <point x="245" y="438"/>
      <point x="245" y="465" type="curve" smooth="yes"/>
      <point x="245" y="512"/>
      <point x="277.345679012" y="549.0"/>
      <point x="376" y="549" type="curve"/>
      <point x="270" y="682" type="line"/>
      <point x="157" y="674"/>
      <point x="54" y="588"/>
      <point x="54" y="482" type="curve" smooth="yes"/>
      <point x="54" y="389"/>
      <point x="127" y="322"/>
      <point x="292" y="297" type="curve"/>
    </contour>
    <contour>
      <point x="111" y="559"/>
      <point x="245" y="549"/>
      <point x="376" y="549" type="curve" smooth="yes"/>
      <point x="555" y="549"/>
      <point x="728" y="561"/>
      <point x="866" y="577" type="curve"/>
      <point x="873" y="599"/>
      <point x="876" y="633"/>
      <point x="876" y="656" type="curve" smooth="yes"/>
      <point x="876" y="679"/>
      <point x="871.324767167" y="696.155605366"/>
      <point x="866" y="710" type="curve"/>
      <point x="758" y="698"/>
      <point x="609" y="690"/>
      <point x="454" y="690" type="curve" smooth="yes"/>
      <point x="296" y="690"/>
      <point x="128" y="694"/>
      <point x="0" y="710" type="curve"/>
      <point x="-6.57565959064" y="696.848680819"/>
      <point x="-10" y="672"/>
      <point x="-10" y="644" type="curve" smooth="yes"/>
      <point x="-10" y="632"/>
      <point x="-7" y="603"/>
      <point x="0" y="577" type="curve"/>
    </contour>
  </outline>
</glyph>
<glyph name="bn_tha" format="1">
  <advance width="833"/>
  <outline>
    <contour>
      <point x="541" y="609"/>
      <point x="616" y="577"/>
      <point x="833" y="577" type="curve"/>
      <point x="840" y="600"/>
      <point x="843" y="629"/>
      <point x="843" y="647" type="curve" smooth="yes"/>
      <point x="843" y="674"/>
      <point x="840" y="694"/>
      <point x="833" y="710" type="curve"/>
      <point x="683" y="710"/>
      <point x="650" y="774"/>
      <point x="623" y="829" type="curve"/>
      <point x="551" y="813"/>
      <point x="473" y="744"/>
      <point x="456" y="701" type="curve"/>
    </contour>
    <contour>
      <point x="710" y="89"/>
      <point x="733" y="506"/>
      <point x="733" y="715" type="curve"/>
      <point x="647" y="715"/>
      <point x="577" y="724"/>
      <point x="510" y="692" type="curve"/>
      <point x="521" y="623"/>
      <point x="528" y="547"/>
      <point x="528" y="457" type="curve" smooth="yes"/>
      <point x="528" y="257"/>
      <point x="511" y="85"/>
      <point x="478" y="-76" type="curve"/>
      <point x="517" y="-100"/>
      <point x="590" y="-116"/>
      <point x="646" y="-116" type="curve"/>
    </contour>
    <contour>
      <point x="57" y="778"/>
      <point x="-15" y="678"/>
      <point x="-15" y="588" type="curve" smooth="yes"/>
      <point x="-15" y="497"/>
      <point x="42" y="435"/>
      <point x="97" y="405" type="curve"/>
      <point x="143.322087149" y="438.688790654"/>
      <point x="194.684146514" y="480.276169094"/>
      <point x="219" y="536" type="curve"/>
      <point x="182" y="548"/>
      <point x="160" y="577"/>
      <point x="160" y="609" type="curve" smooth="yes"/>
      <point x="160" y="647"/>
      <point x="180" y="672"/>
      <point x="220" y="672" type="curve" smooth="yes"/>
      <point x="266" y="672"/>
      <point x="307" y="625"/>
      <point x="307" y="554" type="curve" smooth="yes"/>
      <point x="307" y="451"/>
      <point x="244" y="376"/>
      <point x="109" y="350" type="curve"/>
      <point x="109" y="298"/>
      <point x="120" y="243"/>
      <point x="135" y="204" type="curve"/>
      <point x="280" y="177"/>
      <point x="443" y="87"/>
      <point x="515" y="-75" type="curve"/>
      <point x="545" y="21" type="line"/>
      <point x="495" y="169"/>
      <point x="404" y="296"/>
      <point x="286" y="337" type="curve"/>
      <point x="269" y="246" type="line"/>
      <point x="397.389691081" y="310.708404305"/>
      <point x="469" y="401"/>
      <point x="469" y="534" type="curve" smooth="yes"/>
      <point x="469" y="675"/>
      <point x="374" y="778"/>
      <point x="219" y="778" type="curve" smooth="yes"/>
    </contour>
  </outline>
</glyph>
<glyph name="onesuperior" format="1">
  <advance width="358"/>
  <outline>
    <contour>
      <point x="238" y="741" type="curve"/>
      <point x="171" y="698"/>
      <point x="95" y="657"/>
      <point x="7" y="622" type="curve"/>
      <point x="26" y="575"/>
      <point x="50" y="544"/>
      <point x="87" y="518" type="curve"/>
      <point x="167" y="565"/>
      <point x="255" y="618"/>
      <point x="332" y="684" type="curve"/>
      <point x="309" y="709"/>
      <point x="278" y="728"/>
    </contour>
    <contour>
      <point x="267" y="476"/>
      <point x="311" y="632"/>
      <point x="332" y="684" type="curve"/>
      <point x="308" y="689"/>
      <point x="285" y="693"/>
      <point x="262" y="693" type="curve"/>
      <point x="209" y="693"/>
      <point x="185" y="685"/>
      <point x="161" y="673" type="curve"/>
      <point x="135" y="586"/>
      <point x="118" y="415"/>
      <point x="118" y="286" type="curve" smooth="yes"/>
      <point x="118" y="282"/>
      <point x="118" y="279"/>
      <point x="118" y="275" type="curve"/>
      <point x="131" y="271"/>
      <point x="142" y="269"/>
      <point x="164" y="269" type="curve" smooth="yes"/>
      <point x="203" y="269"/>
      <point x="231" y="275"/>
      <point x="251" y="283" type="curve"/>
    </contour>
  </outline>
</glyph>
<glyph name="uni0219" format="1">
  <advance width="519"/>
  <outline>
    <contour>
      <point x="304" y="-68" type="curve"/>
      <point x="257" y="-64"/>
      <point x="230" y="-66"/>
      <point x="174" y="-73" type="curve"/>
      <point x="175" y="-136"/>
      <point x="171" y="-185"/>
      <point x="151" y="-251" type="curve"/>
      <point x="183" y="-261"/>
      <point x="218" y="-263"/>
      <point x="262" y="-262" type="curve"/>
      <point x="289" y="-202"/>
      <point x="301" y="-135"/>
    </contour>
    <component base="s"/>
  </outline>
</glyph>
